<svg id="Layer_1" data-name="Layer 1" xmlns="http://www.w3.org/2000/svg" viewBox="0 0 71.9 71.9"><defs><style>.cls-1{fill:#d1d3d4;}.cls-2{fill:#fff;}</style></defs><rect class="cls-1" width="71.9" height="71.9"/><path class="cls-2" d="M34.27,40.62V37H30.66V33.63h3.61V30h3.36v3.63h3.61V37H37.63v3.63Z"/><path class="cls-2" d="M23.64,59.68l-.6-1.6H21.09l-.6,1.6h-.84l2.06-5.43h.71l2.06,5.43Zm-1.56-4.4h0l-.7,2.07h1.4Z"/><path class="cls-2" d="M28.16,59.68V59.1h0a1.72,1.72,0,0,1-1.44.68,2.14,2.14,0,0,1,0-4.27,1.75,1.75,0,0,1,1.4.6h0V54.25h.76v5.43ZM26.74,56.2a1.44,1.44,0,1,0,1.42,1.48A1.41,1.41,0,0,0,26.74,56.2Z"/><path class="cls-2" d="M33.19,59.68V59.1h0a1.74,1.74,0,0,1-1.44.68,2.14,2.14,0,0,1,0-4.27,1.75,1.75,0,0,1,1.4.6h0V54.25h.76v5.43ZM31.78,56.2a1.44,1.44,0,1,0,1.41,1.48A1.4,1.4,0,0,0,31.78,56.2Z"/><path class="cls-2" d="M40.59,59.68l-2.69-4.2h0v4.2h-.8V54.25H38l2.64,4.13h0V54.25h.8v5.43Z"/><path class="cls-2" d="M43,58a1.4,1.4,0,0,0,1.34,1.1,1.3,1.3,0,0,0,1.15-.68h.77a2.08,2.08,0,0,1-1.95,1.38,2.13,2.13,0,0,1-2.07-2.1,2.09,2.09,0,0,1,2-2.17,2.07,2.07,0,0,1,2.1,2.09,2.55,2.55,0,0,1,0,.38Zm2.63-.59a1.32,1.32,0,0,0-2.63,0Z"/><path class="cls-2" d="M50.32,59.68l-.88-2.74h0l-.88,2.74h-.42l-1.51-4.06h.81l.9,2.64h0l.84-2.64h.5l.84,2.64h0l.89-2.64h.81l-1.5,4.06Z"/></svg>