<svg width="11" height="16" viewBox="0 0 11 16" fill="none" xmlns="http://www.w3.org/2000/svg">
<path d="M4.79844 10.7665C3.37827 10.5926 2.22309 9.98808 1.33372 8.96125C0.444353 7.92613 0 6.74031 0 5.4046C0 3.91901 0.527989 2.64707 1.58297 1.58794C2.63879 0.529646 3.91239 0 5.4046 0C6.88357 0 8.15717 0.531302 9.21712 1.59291C10.2771 2.65535 10.8071 3.92564 10.8071 5.4046C10.8071 6.74031 10.3599 7.92613 9.47383 8.96125C8.5795 9.98808 7.421 10.5926 6.00083 10.7665V12.7953H9.00811V13.996H6.00083V16H4.79844V13.996H1.80523V12.7953H4.79844V10.7665ZM5.4046 9.60715C6.55813 9.60715 7.54687 9.19311 8.37247 8.3733C9.19228 7.55515 9.60633 6.56476 9.60633 5.4046C9.60633 4.24528 9.20056 3.25489 8.37247 2.43342C7.55515 1.61279 6.56476 1.20205 5.4046 1.20205C4.24528 1.20205 3.25489 1.61444 2.43342 2.43839C1.61279 3.26234 1.20205 4.25108 1.20205 5.4046C1.20205 6.56476 1.61279 7.55515 2.43342 8.3733C3.25489 9.19311 4.24528 9.60715 5.4046 9.60715Z" fill="#FF0081"/>
</svg>
