<svg width="17" height="17" viewBox="0 0 17 17" fill="none" xmlns="http://www.w3.org/2000/svg">
<path d="M16.3072 5.01888H14.8326V2.97884L12.1274 5.67889C13.0935 6.89519 13.5817 8.28336 13.5817 9.82915C13.5817 11.6597 12.9308 13.2157 11.6291 14.5174C10.3274 15.8191 8.76125 16.47 6.94087 16.47C5.12049 16.47 3.55435 15.8191 2.25263 14.5174C0.95091 13.2157 0.300049 11.6597 0.300049 9.82915C0.300049 8.01589 0.95091 6.45688 2.25263 5.15719C3.55435 3.85648 5.12049 3.20664 6.94087 3.20664C8.49683 3.20664 9.87991 3.68665 11.0901 4.64667L13.7952 1.9456H11.7511V0.469971H16.3072V5.01888ZM6.94087 15.0055C8.35446 15.0055 9.57482 14.497 10.5816 13.4902C11.5986 12.4733 12.1071 11.2529 12.1071 9.82915C12.1071 8.40539 11.5986 7.19113 10.5918 6.18331C9.58499 5.17448 8.36463 4.67108 6.94087 4.67108C5.52728 4.67108 4.30691 5.17651 3.30011 6.18941C2.28314 7.2013 1.78483 8.41556 1.78483 9.82915C1.78483 11.2529 2.28314 12.4733 3.30011 13.4902C4.30691 14.497 5.52728 15.0055 6.94087 15.0055Z" fill="#0069E3"/>
</svg>
